<svg xmlns="http://www.w3.org/2000/svg" xmlns:xlink="http://www.w3.org/1999/xlink" width="183.089" height="224.721" viewBox="0 0 183.089 224.721">
  <defs>
    <linearGradient id="linear-gradient" y1="0.5" x2="1" y2="0.5" gradientUnits="objectBoundingBox">
      <stop offset="0" stop-color="#1dcdfe"/>
      <stop offset="1" stop-color="#21d0b3"/>
    </linearGradient>
  </defs>
  <g id="Group_87" data-name="Group 87" transform="translate(-2971.911 -1295.417)" style="mix-blend-mode: difference;isolation: isolate">
    <g id="Group_85" data-name="Group 85">
      <g id="Path_1092" data-name="Path 1092" fill="none" stroke-miterlimit="10">
        <path d="M3141.2,1387.809a77.745,77.745,0,1,1-77.744-77.745A77.743,77.743,0,0,1,3141.2,1387.809Z" stroke="none"/>
        <path d="M 3063.4560546875 1458.98876953125 C 3102.70458984375 1458.98876953125 3134.6357421875 1427.0576171875 3134.6357421875 1387.808959960938 C 3134.6357421875 1348.559692382813 3102.70458984375 1316.628173828125 3063.4560546875 1316.628173828125 C 3024.206298828125 1316.628173828125 2992.274169921875 1348.559692382813 2992.274169921875 1387.808959960938 C 2992.274169921875 1427.0576171875 3024.206298828125 1458.98876953125 3063.4560546875 1458.98876953125 M 3063.4560546875 1465.552978515625 C 3020.52001953125 1465.552978515625 2985.7099609375 1430.745971679688 2985.7099609375 1387.808959960938 C 2985.7099609375 1344.871948242188 3020.52001953125 1310.06396484375 3063.4560546875 1310.06396484375 C 3106.39404296875 1310.06396484375 3141.199951171875 1344.871948242188 3141.199951171875 1387.808959960938 C 3141.199951171875 1430.745971679688 3106.39404296875 1465.552978515625 3063.4560546875 1465.552978515625 Z" stroke="none" fill="#fff"/>
      </g>
      <g id="Group_80" data-name="Group 80">
        <path id="Path_1093" data-name="Path 1093" d="M3095.5,1387.81a32.048,32.048,0,1,1-32.049-32.05A32.048,32.048,0,0,1,3095.5,1387.81Z" fill="#fff"/>
        <path id="Path_1094" data-name="Path 1094" d="M3081.263,1387.809a18.785,18.785,0,1,1-18.785-18.785A18.784,18.784,0,0,1,3081.263,1387.809Z" fill="url(#linear-gradient)"/>
        <path id="Path_1095" data-name="Path 1095" d="M3062.2,1400.132a9.254,9.254,0,1,1-9.254-9.255A9.254,9.254,0,0,1,3062.2,1400.132Z" fill="#fff"/>
        <path id="Path_1096" data-name="Path 1096" d="M3079.883,1374.088a5.063,5.063,0,1,1-5.063-5.064A5.064,5.064,0,0,1,3079.883,1374.088Z" fill="#fff"/>
      </g>
      <path id="Path_1097" data-name="Path 1097" d="M2979.221,1386.963a84.235,84.235,0,1,1,168.47,0c0,.061,0,.122,0,.185H3155c0-.063,0-.124,0-.185a91.545,91.545,0,1,0-183.089,0c0,.061,0,.122,0,.185h7.311C2979.226,1387.085,2979.221,1387.024,2979.221,1386.963Z" fill="#4a7cc6"/>
      <path id="Path_1098" data-name="Path 1098" d="M3001.475,1407.359" fill="none" stroke="#36c" stroke-linecap="round" stroke-linejoin="round" stroke-width="5.835"/>
      <g id="Group_82" data-name="Group 82">
        <g id="Group_81" data-name="Group 81">
          <path id="Path_1099" data-name="Path 1099" d="M3008.477,1397.086c6.094,27.823,31.408,46.937,58.529,45.246,24.7-1.54,46.011-20.03,51.428-45.246" fill="none" stroke="#fff" stroke-linecap="round" stroke-linejoin="round" stroke-width="5.835"/>
        </g>
      </g>
      <g id="Group_84" data-name="Group 84">
        <g id="Group_83" data-name="Group 83">
          <path id="Path_1100" data-name="Path 1100" d="M3118.434,1376.409c-6.094-27.823-31.408-46.937-58.529-45.246-24.7,1.54-46.012,20.03-51.428,45.246" fill="none" stroke="#fff" stroke-linecap="round" stroke-linejoin="round" stroke-width="5.835"/>
        </g>
      </g>
      <path id="Path_1101" data-name="Path 1101" d="M3110.034,1373.337l9.218,9.3,5.808-11.3" fill="none" stroke="#fff" stroke-linecap="round" stroke-linejoin="round" stroke-width="4.682"/>
      <path id="Path_1102" data-name="Path 1102" d="M3017.231,1401.935l-9.218-9.3-5.808,11.3" fill="none" stroke="#fff" stroke-linecap="round" stroke-linejoin="round" stroke-width="4.682"/>
    </g>
    <g id="Group_86" data-name="Group 86">
      <path id="Path_1103" data-name="Path 1103" d="M2980.109,1490.408h14.027a2.551,2.551,0,0,1,1.821.692,2.336,2.336,0,0,1,.733,1.779,2.16,2.16,0,0,1-.733,1.7,2.644,2.644,0,0,1-1.821.649h-11.724l.377-.712v8.165l-.335-.335h9.8a2.553,2.553,0,0,1,1.822.691,2.338,2.338,0,0,1,.733,1.78,2.157,2.157,0,0,1-.733,1.7,2.647,2.647,0,0,1-1.822.649h-9.672l.21-.335v8.459l-.335-.377h11.682a2.473,2.473,0,0,1,1.821.732,2.333,2.333,0,0,1,.733,1.7,2.223,2.223,0,0,1-.733,1.717,2.6,2.6,0,0,1-1.821.67h-14.027a2.5,2.5,0,0,1-2.554-2.554v-24.2a2.5,2.5,0,0,1,2.554-2.555Z" fill="#36c"/>
      <path id="Path_1104" data-name="Path 1104" d="M3010.926,1520.138a17.675,17.675,0,0,1-5.276-.733,12.631,12.631,0,0,1-4.48-2.575,3.294,3.294,0,0,1-.837-1.047,2.594,2.594,0,0,1-.294-1.173,2.4,2.4,0,0,1,.692-1.695,2.283,2.283,0,0,1,1.737-.733,2.226,2.226,0,0,1,1.424.5,13.284,13.284,0,0,0,3.161,1.969,9.894,9.894,0,0,0,3.873.669,8.123,8.123,0,0,0,2.847-.481,5.58,5.58,0,0,0,2.094-1.3,2.6,2.6,0,0,0,.8-1.864,3.172,3.172,0,0,0-.754-2.135,5.731,5.731,0,0,0-2.3-1.486,17.7,17.7,0,0,0-3.936-.942,17.634,17.634,0,0,1-3.978-1.026,9.232,9.232,0,0,1-2.868-1.759,6.954,6.954,0,0,1-1.738-2.512,8.561,8.561,0,0,1-.586-3.245,7.674,7.674,0,0,1,1.4-4.648,8.785,8.785,0,0,1,3.789-2.931,13.464,13.464,0,0,1,5.276-1.005,15.134,15.134,0,0,1,5.046.816,11.779,11.779,0,0,1,3.789,2.073,2.8,2.8,0,0,1,1.214,2.219,2.386,2.386,0,0,1-.711,1.675,2.232,2.232,0,0,1-1.675.754,1.839,1.839,0,0,1-1.131-.377,7.609,7.609,0,0,0-1.8-1.11,16.248,16.248,0,0,0-2.387-.879,8.635,8.635,0,0,0-2.345-.356,8.763,8.763,0,0,0-3.036.46,4.162,4.162,0,0,0-1.863,1.257,2.886,2.886,0,0,0-.628,1.842,2.984,2.984,0,0,0,.733,2.073,4.975,4.975,0,0,0,2.114,1.3,24.423,24.423,0,0,0,3.308.858,33.655,33.655,0,0,1,4.418,1.089,10.344,10.344,0,0,1,3.161,1.612,6.1,6.1,0,0,1,1.884,2.471,9.3,9.3,0,0,1,.628,3.621,7.486,7.486,0,0,1-1.507,4.69,9.643,9.643,0,0,1-3.957,3.015A13.352,13.352,0,0,1,3010.926,1520.138Z" fill="#36c"/>
      <path id="Path_1105" data-name="Path 1105" d="M3029.1,1519.719a2.475,2.475,0,0,1-2.6-2.554v-24.2a2.441,2.441,0,0,1,.753-1.822,2.653,2.653,0,0,1,1.927-.733,2.441,2.441,0,0,1,1.863.733,2.552,2.552,0,0,1,.691,1.822v24.2a2.511,2.511,0,0,1-.712,1.821A2.56,2.56,0,0,1,3029.1,1519.719Zm18.089-29.52a2.021,2.021,0,0,1,1.653.817,2.648,2.648,0,0,1,.65,1.654,2.284,2.284,0,0,1-.754,1.633l-17.544,16.79-.21-5.988,14.153-13.943A2.884,2.884,0,0,1,3047.187,1490.2Zm-.5,29.52a2.23,2.23,0,0,1-1.884-.963l-9.673-12.729,3.811-3.894,10.007,13.231a2.839,2.839,0,0,1,.586,1.717,2.362,2.362,0,0,1-.879,1.9A2.994,2.994,0,0,1,3046.684,1519.719Z" fill="#fff"/>
      <path id="Path_1106" data-name="Path 1106" d="M3071.64,1496.9a2.438,2.438,0,0,1,1.8.712,2.493,2.493,0,0,1,.712,1.842v17.712a2.511,2.511,0,0,1-.712,1.821,2.578,2.578,0,0,1-3.6,0,2.507,2.507,0,0,1-.712-1.821v-2.052l.922.377a2.356,2.356,0,0,1-.587,1.319,7.95,7.95,0,0,1-1.591,1.528,9.762,9.762,0,0,1-2.365,1.277,8.162,8.162,0,0,1-2.953.524,9.575,9.575,0,0,1-5.234-1.487,10.451,10.451,0,0,1-3.705-4.1,14.038,14.038,0,0,1,0-12.06,10.568,10.568,0,0,1,3.664-4.1,9.227,9.227,0,0,1,5.108-1.486,9.7,9.7,0,0,1,3.308.544,9.9,9.9,0,0,1,2.617,1.382,7.966,7.966,0,0,1,1.717,1.7,2.7,2.7,0,0,1,.607,1.444l-1.508.545v-3.057a2.511,2.511,0,0,1,.712-1.822A2.4,2.4,0,0,1,3071.64,1496.9Zm-8.459,18.633a5.673,5.673,0,0,0,3.225-.922,6.217,6.217,0,0,0,2.156-2.512,8.026,8.026,0,0,0,.775-3.559,8.13,8.13,0,0,0-.775-3.6,6.223,6.223,0,0,0-2.156-2.512,5.68,5.68,0,0,0-3.225-.921,5.605,5.605,0,0,0-3.182.921,6.212,6.212,0,0,0-2.156,2.512,8.113,8.113,0,0,0-.775,3.6,8.009,8.009,0,0,0,.775,3.559,6.206,6.206,0,0,0,2.156,2.512A5.6,5.6,0,0,0,3063.181,1515.532Z" fill="#fff"/>
      <path id="Path_1107" data-name="Path 1107" d="M3081.772,1494.6a3.316,3.316,0,0,1-2.009-.461,1.964,1.964,0,0,1-.587-1.633v-.8a1.859,1.859,0,0,1,.649-1.653,3.592,3.592,0,0,1,1.989-.44,3.419,3.419,0,0,1,2.052.461,1.968,1.968,0,0,1,.586,1.632v.8a1.889,1.889,0,0,1-.628,1.654A3.673,3.673,0,0,1,3081.772,1494.6Zm2.554,22.569a2.51,2.51,0,0,1-.711,1.821,2.578,2.578,0,0,1-3.6,0,2.507,2.507,0,0,1-.712-1.821v-17.294a2.511,2.511,0,0,1,.712-1.821,2.578,2.578,0,0,1,3.6,0,2.513,2.513,0,0,1,.711,1.821Z" fill="#fff"/>
      <path id="Path_1108" data-name="Path 1108" d="M3103.754,1515.113a2.311,2.311,0,0,1,1.675.649,2.35,2.35,0,0,1,0,3.287,2.269,2.269,0,0,1-1.675.67h-13.482a2.068,2.068,0,0,1-1.675-.754,2.154,2.154,0,0,1-.586-1.507,5.92,5.92,0,0,1,.167-1.11,3.178,3.178,0,0,1,.628-1.11l10.426-13.482-.084.586h-8.5A2.29,2.29,0,0,1,3088.3,1500a2.153,2.153,0,0,1,.67-1.612,2.313,2.313,0,0,1,1.675-.649h12.9a2.161,2.161,0,0,1,1.633.712,2.258,2.258,0,0,1,.587,1.8,6.066,6.066,0,0,1-.147.838,2.909,2.909,0,0,1-.565,1l-10.259,13.273v-.251Z" fill="#fff"/>
      <path id="Path_1109" data-name="Path 1109" d="M3119.666,1520.138a12.3,12.3,0,0,1-6.176-1.487,10.257,10.257,0,0,1-4.02-4.041,11.789,11.789,0,0,1-1.4-5.778,12.7,12.7,0,0,1,1.529-6.427,10.808,10.808,0,0,1,4-4.083,10.328,10.328,0,0,1,5.234-1.423,9.529,9.529,0,0,1,4.04.879,11.07,11.07,0,0,1,3.371,2.407,11.733,11.733,0,0,1,2.324,3.539,10.762,10.762,0,0,1,.858,4.271,2.15,2.15,0,0,1-.8,1.633,2.66,2.66,0,0,1-1.758.628h-15.995l-1.256-4.187h15.367l-.921.837v-1.13a3.833,3.833,0,0,0-.859-2.178,5.6,5.6,0,0,0-1.926-1.528,5.487,5.487,0,0,0-2.449-.565,7.973,7.973,0,0,0-2.345.334,4.5,4.5,0,0,0-1.885,1.131,5.493,5.493,0,0,0-1.256,2.135,10.594,10.594,0,0,0-.46,3.392,7.32,7.32,0,0,0,.942,3.831,6.438,6.438,0,0,0,5.59,3.2,9.756,9.756,0,0,0,2.47-.251,5.55,5.55,0,0,0,1.487-.608q.565-.354,1.026-.607a3.192,3.192,0,0,1,1.423-.377,2.11,2.11,0,0,1,2.136,2.094,2.616,2.616,0,0,1-1.173,2.052,9.72,9.72,0,0,1-3.056,1.612A12.2,12.2,0,0,1,3119.666,1520.138Z" fill="#fff"/>
      <path id="Path_1110" data-name="Path 1110" d="M3145.636,1496.909a7.369,7.369,0,0,1,4.7,1.319,6.6,6.6,0,0,1,2.2,3.465,17.679,17.679,0,0,1,.585,4.8l-.049,10.719a2.512,2.512,0,0,1-.719,1.818,2.579,2.579,0,0,1-3.6-.016,2.511,2.511,0,0,1-.7-1.825l.049-10.719a8.177,8.177,0,0,0-.345-2.493,3.44,3.44,0,0,0-1.269-1.785,4.437,4.437,0,0,0-2.635-.682,5.534,5.534,0,0,0-2.829.657,4.584,4.584,0,0,0-1.767,1.771,5.1,5.1,0,0,0-.618,2.489l-.049,10.719a2.511,2.511,0,0,1-.72,1.818,2.578,2.578,0,0,1-3.6-.016,2.509,2.509,0,0,1-.7-1.825l.079-17.293a2.51,2.51,0,0,1,.72-1.818,2.58,2.58,0,0,1,3.6.016,2.517,2.517,0,0,1,.7,1.825l-.009,1.8-.627-.129a8.271,8.271,0,0,1,1.1-1.523,10.467,10.467,0,0,1,1.682-1.521,8.53,8.53,0,0,1,2.183-1.142A7.7,7.7,0,0,1,3145.636,1496.909Z" fill="#fff"/>
    </g>
  </g>
</svg>
